<!DOCTYPE svg PUBLIC "-//W3C//DTD SVG 1.1//EN" "http://www.w3.org/Graphics/SVG/1.1/DTD/svg11.dtd">
<!-- Uploaded to: SVG Repo, www.svgrepo.com, Transformed by: SVG Repo Mixer Tools -->
<svg width="800px" height="800px" viewBox="0 0 24 24" xmlns="http://www.w3.org/2000/svg" fill="none">
<g id="SVGRepo_bgCarrier" stroke-width="0"/>
<g id="SVGRepo_tracerCarrier" stroke-linecap="round" stroke-linejoin="round"/>
<g id="SVGRepo_iconCarrier"> <path stroke="#ffffff" stroke-linecap="round" stroke-linejoin="round" stroke-width="2" d="m14.5 10-.035-.139A2.457 2.457 0 0 0 12.082 8h-.522a1.841 1.841 0 0 0-.684 3.55l2.248.9A1.841 1.841 0 0 1 12.44 16h-.521a2.457 2.457 0 0 1-2.384-1.861L9.5 14M12 6v2m0 8v2m9-6a9 9 0 1 1-18 0 9 9 0 0 1 18 0Z"/> </g>
</svg>