<svg width="58" height="74" viewBox="0 0 58 74" fill="none" xmlns="http://www.w3.org/2000/svg">
<path fill-rule="evenodd" clip-rule="evenodd" d="M19.9323 36.6338C20.244 34.4878 21.0331 32.7965 22.2998 31.56C23.5819 30.3084 25.0503 29.5345 26.7051 29.238L28.2798 32.48C26.0798 35.28 23.5598 36.68 20.7198 36.68C20.4513 36.68 20.1888 36.6646 19.9323 36.6338ZM29.4968 53.4521C30.046 49.9492 30.767 45.7119 31.6598 40.74C27.1398 41.34 23.3398 42.02 20.2598 42.78C19.9398 41.78 19.7798 40.48 19.7798 38.88C19.7798 38.0829 19.8307 37.3341 19.9323 36.6338C18.3165 36.44 16.939 35.6353 15.7998 34.22C14.5198 32.54 13.8798 30.04 13.8798 26.72C13.8798 23.4 14.6598 20.22 16.2198 17.18C17.7798 14.14 19.6398 12.1 21.7998 11.06C22.7998 12.74 24.1198 14.04 25.7598 14.96C27.4398 15.84 29.3198 16.28 31.3998 16.28C33.4798 16.28 35.3198 15.6 36.9198 14.24C38.5598 12.84 39.3798 10.9 39.3798 8.42C39.3798 5.94 38.2998 4 36.1398 2.6C34.0198 1.2 31.0598 0.5 27.2598 0.5C23.4998 0.5 19.8398 1.3 16.2798 2.9C12.7598 4.46 9.89981 6.48 7.69981 8.96C5.4998 11.44 3.7998 14.14 2.5998 17.06C1.3998 19.94 0.799805 22.78 0.799805 25.58C0.799805 32.14 2.45981 37.1 5.77981 40.46C9.13981 43.82 13.5398 45.5 18.9798 45.5C21.2998 45.5 23.5398 45.18 25.6998 44.54C25.6998 47.62 26.1998 49.96 27.1998 51.56C27.7614 52.424 28.527 53.0546 29.4968 53.4521ZM40.4536 30.7785C43.246 31.2684 45.4348 31.5289 47.0198 31.56C50.4198 30.92 53.6598 30.14 56.7398 29.22C57.0598 30.26 57.2198 31.56 57.2198 33.12C57.2198 36.36 56.2798 38.8 54.3998 40.44C52.5598 42.08 50.1998 42.9 47.3198 42.9C46.5998 42.9 45.6398 42.86 44.4398 42.78C42.2398 54.34 41.1398 60.8 41.1398 62.16C41.1398 66.04 41.7398 68.94 42.9398 70.86C40.5398 72.66 38.0398 73.56 35.4398 73.56C32.8398 73.56 30.9798 72.82 29.8598 71.34C28.7398 69.82 28.1798 67.58 28.1798 64.62C28.1798 62.7745 28.6188 59.0518 29.4968 53.4521C30.323 53.7907 31.2973 53.96 32.4198 53.96C34.8598 53.96 37.1998 53.14 39.4398 51.5C38.3598 50.3 37.8198 48.46 37.8198 45.98C37.8198 43.5 38.3598 39.92 39.4398 35.24C39.8545 33.4924 40.1924 32.0052 40.4536 30.7785ZM40.4536 30.7785C39.6521 30.6379 38.8008 30.4784 37.8998 30.3C33.8598 29.5 30.6598 29.1 28.2998 29.1C27.7503 29.1 27.2187 29.146 26.7051 29.238L25.2198 26.18C29.4998 23.34 33.3598 21.92 36.7998 21.92C39.6798 21.92 41.1198 23.54 41.1198 26.78C41.1198 27.3594 40.8977 28.6922 40.4536 30.7785Z" fill="white"/>
</svg>
